<svg id="24910cf4-76de-4bf2-a5ab-940366c21043" data-name="Layer 1" xmlns="http://www.w3.org/2000/svg" width="10.07in" height="9.65in" viewBox="0 0 725.33 694.54"><title>Artboard 4</title><path d="M120.1,361.38C97.58,240.86,177,124.9,297.54,102.37s236.48,56.92,259,177.44Z" fill="none" stroke="#231f20" stroke-miterlimit="10" stroke-width="7"/><path d="M120.46,363.29c22.52,120.52,138.48,200,259,177.44s200-138.48,177.44-259Z" fill="#fff" stroke="#231f20" stroke-miterlimit="10" stroke-width="7"/><path d="M323.63,266.44a54,54,0,0,0-32.52,19.78L116.79,318.8a224.22,224.22,0,0,0,16.53,88.47l174.32-32.58a53.78,53.78,0,0,0,70-13.08l183.16-34.23a224.22,224.22,0,0,0-16.53-88.47L361.09,273.14A54,54,0,0,0,323.63,266.44Z" fill="#231f20" stroke="#231f20" stroke-miterlimit="10" stroke-width="7"/><circle cx="334.56" cy="322.32" r="47.32" fill="#fff" stroke="#231f20" stroke-miterlimit="10" stroke-width="7"/><circle cx="334.56" cy="322.32" r="30.08" fill="#fff" stroke="#231f20" stroke-miterlimit="10" stroke-width="5"/><ellipse cx="210.23" cy="190.32" rx="42.64" ry="20.63" transform="translate(-72.22 215.58) rotate(-47.26)" fill="#fff"/></svg>