<?xml version="1.0" encoding="utf-8"?>
<!-- Generator: Adobe Illustrator 21.1.0, SVG Export Plug-In . SVG Version: 6.00 Build 0)  -->
<svg version="1.1" id="Layer_1" xmlns="http://www.w3.org/2000/svg" xmlns:xlink="http://www.w3.org/1999/xlink" x="0px" y="0px"
	 viewBox="0 0 732 639" style="enable-background:new 0 0 732 639;" xml:space="preserve">
<style type="text/css">
	.st0{fill:none;}
	.st1{fill:#FFFFFF;}
	.st2{stroke:#000000;stroke-width:6;stroke-miterlimit:10;}
	.st3{fill:url(#SVGID_1_);}
</style>
<pattern  x="-374" y="-57" width="211.6" height="186.4" patternUnits="userSpaceOnUse" id="New_Pattern_Swatch_4" viewBox="0 -186.4 211.6 186.4" style="overflow:visible;">
	<g>
		<rect x="0" y="-186.4" class="st0" width="211.6" height="186.4"/>
		<g>
			<g>
				<path class="st1" d="M177.8-56.5c-6.4,0-12.7-1.7-18.3-5l-71.1-41.9l16.8-28.6l102.1,60.2C200.7-62.2,189.6-56.5,177.8-56.5z"/>
				<path d="M106.4-127.8l-13.8,23.4L161.1-64c5.1,3,10.8,4.6,16.7,4.6c9.7,0,18.9-4.3,25.1-11.4L106.4-127.8 M104.3-136l107.4,63.3
					v0c-7.3,12.3-20.4,19.2-33.8,19.2c-6.7,0-13.6-1.7-19.8-5.4l-73.6-43.4L104.3-136L104.3-136z"/>
			</g>
			<path class="st2" d="M4.9-176.8L4.9-176.8c3.8-6.4,12-8.5,18.3-4.7l82.9,48.9l-13.6,23L9.6-158.5C3.2-162.2,1.1-170.4,4.9-176.8z
				"/>
			<g>
				
					<ellipse transform="matrix(0.8614 -0.5079 0.5079 0.8614 77.0079 26.6389)" class="st1" cx="87.3" cy="-127.8" rx="5.2" ry="5.2"/>
			</g>
			<g>
				
					<ellipse transform="matrix(0.8614 -0.5079 0.5079 0.8614 87.8578 -13.1293)" class="st1" cx="19.9" cy="-167.6" rx="5.2" ry="5.2"/>
			</g>
		</g>
		<g>
			
				<ellipse transform="matrix(0.2196 -0.9756 0.9756 0.2196 160.6406 133.105)" class="st2" cx="163.5" cy="-33.9" rx="8.3" ry="8.3"/>
			<polygon points="156.3,-55.1 170,-41.6 153.5,-35.2 154.2,-40.3 			"/>
		</g>
		<g>
			<path class="st2" d="M137-32.6c-2.7,2.5-6.4,1.8-8.4-1.7c-2-3.5-1.4-8.3,1.3-10.8c2.7-2.5,6.4-1.8,8.4,1.7
				C140.2-40,139.6-35.1,137-32.6z"/>
			<polygon points="145.4,-53 140.4,-36.2 131.5,-48 135,-49.3 			"/>
		</g>
		<g>
			<path class="st2" d="M157.2-8.1c0,3.7-3.2,5.9-7,4.9s-6.9-4.8-6.9-8.5c0-3.7,3.2-5.9,7-4.9C154.2-15.6,157.3-11.8,157.2-8.1z"/>
			<polygon points="148.4,-28.4 157,-13.1 142.3,-14.8 143.9,-18.2 			"/>
		</g>
	</g>
</pattern>
<pattern  id="SVGID_1_" xlink:href="#New_Pattern_Swatch_4" patternTransform="matrix(1 0 0 1.0017 145.6562 165.0603)">
</pattern>
<rect y="-1.1" class="st3" width="732" height="640.1"/>
</svg>
